<?xml version="1.0" encoding="utf-8"?>
<!-- Generator: Adobe Illustrator 21.1.0, SVG Export Plug-In . SVG Version: 6.00 Build 0)  -->
<svg version="1.1" id="Layer_1" xmlns="http://www.w3.org/2000/svg" xmlns:xlink="http://www.w3.org/1999/xlink" x="0px" y="0px"
	 viewBox="0 0 115.7 96.2" style="enable-background:new 0 0 115.7 96.2;" xml:space="preserve">
<style type="text/css">
	.st0{fill:#F5F2E5;}
	.st1{clip-path:url(#SVGID_2_);fill:#FFFFFF;}
	.st2{clip-path:url(#SVGID_2_);fill:none;stroke:#FFFFFF;stroke-width:0.3427;stroke-miterlimit:3.864;}
	.st3{fill:none;stroke:#FFFFFF;stroke-width:0.6746;stroke-miterlimit:3.864;}
	.st4{fill:#E10B17;}
	.st5{fill:none;stroke:#060504;stroke-width:0.24;stroke-miterlimit:3.864;}
	.st6{fill:none;stroke:#060504;stroke-width:0.3673;stroke-miterlimit:3.864;}
	.st7{clip-path:url(#SVGID_4_);fill:#FFFFFF;}
	.st8{clip-path:url(#SVGID_6_);fill:url(#SVGID_7_);}
	.st9{clip-path:url(#SVGID_9_);fill:none;stroke:#060504;stroke-width:6.832540e-02;stroke-miterlimit:3.864;}
	.st10{clip-path:url(#SVGID_9_);fill:#060504;}
	.st11{clip-path:url(#SVGID_9_);fill:#FFFFFF;}
	.st12{clip-path:url(#SVGID_11_);fill:url(#SVGID_12_);}
	.st13{clip-path:url(#SVGID_14_);fill:url(#SVGID_15_);}
	.st14{clip-path:url(#SVGID_17_);fill:none;stroke:#060504;stroke-width:6.832540e-02;stroke-miterlimit:3.864;}
	.st15{fill-rule:evenodd;clip-rule:evenodd;fill:#060504;}
</style>
<title>angus_steakhouse-logo_-1</title>
<path class="st0" d="M20,71.7l-6.1-13.3L7.8,71.7H20z M13.1,56.5h1.6l10.7,23.2h-1.9l-2.9-6.5H7.1l-2.9,6.5H2.4L13.1,56.5z"/>
<polygon class="st0" points="28.2,56.6 29.8,56.6 45.8,76.7 45.8,56.6 47.4,56.6 47.4,79.7 46.1,79.7 29.9,59.2 29.9,79.7 
	28.2,79.7 "/>
<g>
	<g>
		<path class="st0" d="M62.7,80.1c-1.7,0-3.4-0.3-4.9-0.9c-1.4-0.6-2.6-1.5-3.6-2.6c-1-1.1-1.8-2.4-2.3-3.8c-0.5-1.5-0.8-3-0.8-4.6
			v-0.1c0-1.5,0.3-3,0.8-4.5c0.5-1.4,1.3-2.7,2.3-3.8c1-1.1,2.3-2,3.6-2.6c1.5-0.7,3.1-1,4.7-1c0.9,0,1.7,0.1,2.6,0.2
			c0.7,0.1,1.5,0.3,2.2,0.6c0.7,0.3,1.3,0.6,1.9,1c0.6,0.4,1.2,0.8,1.8,1.3l-1.1,1.3c-0.9-0.8-2-1.5-3.1-2c-1.4-0.6-2.8-0.8-4.3-0.8
			c-1.3,0-2.6,0.3-3.8,0.8c-1.1,0.5-2.2,1.3-3,2.2c-0.8,1-1.5,2.1-1.9,3.3c-0.5,1.3-0.7,2.6-0.7,4v0.1c0,1.4,0.2,2.8,0.7,4.2
			c0.4,1.2,1.1,2.3,2,3.3c0.9,0.9,1.9,1.7,3.1,2.2c1.3,0.5,2.7,0.8,4.2,0.8c0.7,0,1.4-0.1,2.1-0.2c0.7-0.1,1.4-0.3,2-0.6
			c0.6-0.2,1.1-0.5,1.7-0.9c0.5-0.3,1-0.6,1.4-1v-6.7h-7.7v-1.6h9.4v8.9c-1.2,1-2.5,1.8-3.9,2.4C66.2,79.8,64.4,80.1,62.7,80.1"/>
		<path class="st0" d="M84.8,80.1c-1.3,0-2.6-0.2-3.8-0.6c-1.1-0.4-2.1-1.1-3-1.9c-0.9-0.9-1.5-2-1.9-3.1c-0.5-1.4-0.7-2.8-0.7-4.3
			V56.6h1.7V70c-0.2,2.3,0.6,4.6,2,6.4c1.5,1.5,3.6,2.3,5.8,2.2c1.1,0,2.2-0.2,3.2-0.6c0.9-0.3,1.7-0.9,2.4-1.6
			c0.7-0.8,1.2-1.7,1.5-2.6c0.4-1.2,0.6-2.4,0.6-3.7V56.6h1.7v13.3c0,1.5-0.2,3-0.7,4.4c-0.4,1.2-1.1,2.3-1.9,3.2
			c-0.8,0.9-1.9,1.5-3,1.9C87.4,79.9,86.1,80.1,84.8,80.1"/>
		<path class="st0" d="M106.4,80c-1.7,0-3.4-0.3-5-0.9c-1.6-0.7-3-1.6-4.3-2.8l1.1-1.3c0.6,0.6,1.2,1.1,1.9,1.6
			c0.6,0.4,1.3,0.8,1.9,1.1c0.7,0.3,1.4,0.5,2.1,0.6c0.8,0.1,1.6,0.2,2.4,0.2c0.8,0,1.6-0.1,2.4-0.3c0.7-0.2,1.3-0.6,1.8-1
			c0.5-0.4,0.9-0.8,1.2-1.4c0.3-0.6,0.4-1.2,0.4-1.8v-0.1c0-0.6-0.1-1.1-0.3-1.7c-0.2-0.5-0.5-1-1-1.3c-0.6-0.5-1.3-0.8-2-1.1
			c-1-0.4-2.1-0.7-3.2-0.9c-1.2-0.2-2.4-0.6-3.6-1c-0.9-0.3-1.7-0.8-2.4-1.3c-0.6-0.5-1-1.1-1.3-1.8c-0.3-0.7-0.4-1.5-0.4-2.3v-0.1
			c0-0.8,0.2-1.6,0.5-2.4c0.4-0.7,0.9-1.4,1.6-1.9c0.7-0.6,1.5-1,2.3-1.3c1-0.3,2-0.5,3-0.5c1.5,0,2.9,0.2,4.3,0.7
			c1.3,0.5,2.5,1.2,3.6,2.1l-1.1,1.3c-1-0.9-2.1-1.5-3.3-2c-1.1-0.4-2.3-0.6-3.6-0.6c-0.8,0-1.6,0.1-2.3,0.4
			c-0.6,0.2-1.2,0.5-1.8,0.9c-0.5,0.4-0.8,0.8-1.1,1.4c-0.3,0.5-0.4,1.1-0.4,1.7v0.1c0,0.6,0.1,1.1,0.3,1.7c0.2,0.5,0.6,1,1,1.3
			c0.6,0.5,1.3,0.8,2.1,1.1c1.1,0.4,2.2,0.7,3.4,0.9c2.1,0.3,4.1,1.1,5.8,2.3c1.2,1,1.8,2.5,1.8,4v0.1c0,0.9-0.2,1.8-0.6,2.6
			c-0.4,0.8-0.9,1.5-1.6,2c-0.7,0.6-1.5,1-2.4,1.3C108.5,79.9,107.5,80.1,106.4,80"/>
		<path class="st0" d="M5.8,94.8c-0.8,0-1.5-0.1-2.2-0.4c-0.7-0.3-1.3-0.7-1.9-1.2l0.5-0.6c0.3,0.2,0.5,0.5,0.8,0.7
			c0.3,0.2,0.6,0.3,0.9,0.5c0.3,0.1,0.6,0.2,0.9,0.3c0.3,0.1,0.7,0.1,1,0.1c0.4,0,0.7-0.1,1.1-0.2c0.3-0.1,0.6-0.2,0.8-0.4
			c0.2-0.2,0.4-0.4,0.5-0.6c0.1-0.3,0.2-0.5,0.2-0.8l0,0c0-0.2,0-0.5-0.1-0.7c-0.1-0.2-0.2-0.4-0.4-0.6c-0.3-0.2-0.6-0.4-0.9-0.5
			C6.5,90.2,6,90,5.5,89.9c-0.5-0.1-1.1-0.3-1.6-0.4c-0.4-0.1-0.8-0.3-1.1-0.6c-0.3-0.2-0.5-0.5-0.6-0.8C2.1,87.7,2,87.4,2,87l0,0
			c0-0.4,0.1-0.7,0.3-1c0.2-0.4,0.4-0.7,0.7-0.9c0.3-0.2,0.6-0.4,1-0.6c0.4-0.1,0.9-0.2,1.3-0.2c0.7,0,1.3,0.1,1.9,0.3
			c0.6,0.2,1.1,0.5,1.6,0.9l-0.5,0.6c-0.4-0.4-0.9-0.7-1.5-0.9c-0.5-0.2-1-0.3-1.6-0.3c-0.3,0-0.7,0.1-1,0.2
			c-0.3,0.1-0.6,0.2-0.8,0.4c-0.2,0.2-0.4,0.4-0.5,0.6c-0.1,0.2-0.2,0.5-0.2,0.8l0,0c0,0.3,0,0.5,0.1,0.8c0.1,0.2,0.3,0.4,0.5,0.6
			c0.3,0.2,0.6,0.4,0.9,0.5c0.5,0.2,1,0.3,1.5,0.4c0.9,0.1,1.8,0.5,2.6,1c0.5,0.5,0.8,1.1,0.8,1.8l0,0c0,0.4-0.1,0.8-0.3,1.1
			c-0.2,0.3-0.4,0.6-0.7,0.9c-0.3,0.3-0.7,0.5-1.1,0.6C6.7,94.7,6.2,94.8,5.8,94.8"/>
		<polygon class="st0" points="15.5,85.2 11.9,85.2 11.9,84.5 19.8,84.5 19.8,85.2 16.3,85.2 16.3,94.7 15.5,94.7 		"/>
		<polygon class="st0" points="23.1,84.5 30.4,84.5 30.4,85.2 23.9,85.2 23.9,89.2 29.8,89.2 29.8,89.9 23.9,89.9 23.9,94 30.5,94 
			30.5,94.7 23.1,94.7 		"/>
		<path class="st0" d="M40.9,91.1l-2.7-5.9l-2.7,5.9H40.9z M37.9,84.4h0.7l4.7,10.3h-0.8l-1.3-2.9h-6l-1.3,2.9h-0.8L37.9,84.4z"/>
		<polygon class="st0" points="46.5,84.5 47.3,84.5 47.3,91.2 53.8,84.5 54.8,84.5 50.4,89 55,94.7 54,94.7 49.8,89.5 47.3,92.1 
			47.3,94.7 46.5,94.7 		"/>
		<polygon class="st0" points="58,84.5 58.8,84.5 58.8,89.2 65.3,89.2 65.3,84.5 66.1,84.5 66.1,94.7 65.3,94.7 65.3,89.9 
			58.8,89.9 58.8,94.7 58,94.7 		"/>
		<path class="st0" d="M74.8,94.2c1.2,0,2.3-0.5,3.2-1.3c0.4-0.4,0.7-0.9,0.9-1.5c0.2-0.6,0.3-1.2,0.3-1.8l0,0
			c0-0.6-0.1-1.2-0.3-1.8c-0.2-0.5-0.5-1-0.9-1.5c-0.4-0.4-0.9-0.8-1.4-1c-1.7-0.7-3.6-0.3-4.9,1c-0.4,0.4-0.7,0.9-0.9,1.4
			c-0.2,0.6-0.3,1.2-0.3,1.8l0,0c0,0.6,0.1,1.2,0.3,1.8c0.2,0.5,0.5,1,0.9,1.5c0.4,0.4,0.9,0.8,1.4,1C73.7,94.1,74.3,94.2,74.8,94.2
			 M74.9,94.9c-0.7,0-1.5-0.1-2.1-0.4c-1.3-0.5-2.3-1.6-2.8-2.9c-0.2-0.6-0.4-1.3-0.4-2l0,0c0-0.7,0.1-1.4,0.4-2
			c0.2-0.6,0.6-1.2,1.1-1.7c0.5-0.5,1-0.9,1.6-1.2c1.3-0.6,2.9-0.6,4.2,0c0.6,0.3,1.2,0.7,1.6,1.2c0.4,0.5,0.8,1.1,1,1.7
			c0.2,0.6,0.4,1.3,0.4,2l0,0c0,0.7-0.1,1.4-0.4,2c-0.2,0.6-0.6,1.2-1,1.7c-0.5,0.5-1,0.9-1.6,1.2c-0.7,0.3-1.4,0.4-2.1,0.4"/>
		<path class="st0" d="M87.6,94.9c-0.6,0-1.2-0.1-1.7-0.3c-0.5-0.2-0.9-0.5-1.3-0.8c-0.4-0.4-0.7-0.9-0.9-1.4
			c-0.2-0.6-0.3-1.3-0.3-1.9v-6h0.8v5.9c-0.1,1,0.3,2,0.9,2.8c0.7,0.7,1.6,1,2.6,1c0.5,0,0.9-0.1,1.4-0.2c0.4-0.1,0.8-0.4,1.1-0.7
			c0.3-0.3,0.6-0.7,0.7-1.2c0.2-0.5,0.3-1.1,0.2-1.6v-6h0.8v5.9c0,0.7-0.1,1.3-0.3,1.9c-0.2,0.5-0.5,1-0.9,1.4
			c-0.4,0.4-0.8,0.7-1.3,0.9C88.7,94.8,88.1,94.9,87.6,94.9"/>
		<path class="st0" d="M99.2,94.8c-0.8,0-1.5-0.1-2.2-0.4c-0.7-0.3-1.4-0.7-1.9-1.2l0.5-0.6c0.3,0.2,0.5,0.5,0.8,0.7
			c0.5,0.4,1.1,0.6,1.8,0.8c0.3,0.1,0.7,0.1,1.1,0.1c0.4,0,0.7,0,1.1-0.2c0.3-0.1,0.6-0.2,0.8-0.4c0.2-0.2,0.4-0.4,0.5-0.6
			c0.1-0.3,0.2-0.5,0.2-0.8l0,0c0-0.2,0-0.5-0.1-0.7c-0.1-0.2-0.2-0.4-0.4-0.6c-0.3-0.2-0.6-0.4-0.9-0.5c-0.5-0.2-0.9-0.3-1.4-0.4
			c-0.5-0.1-1.1-0.3-1.6-0.4c-0.4-0.1-0.8-0.3-1.1-0.6c-0.3-0.2-0.5-0.5-0.6-0.8c-0.1-0.3-0.2-0.7-0.2-1l0,0c0-0.4,0.1-0.8,0.3-1.1
			c0.2-0.3,0.4-0.6,0.7-0.9c0.3-0.2,0.6-0.4,1-0.6c0.4-0.1,0.9-0.2,1.3-0.2c0.7,0,1.3,0.1,1.9,0.3c0.6,0.2,1.1,0.5,1.6,0.9l-0.5,0.6
			c-0.4-0.4-0.9-0.7-1.5-0.9c-0.5-0.2-1-0.3-1.5-0.3c-0.3,0-0.7,0.1-1,0.2c-0.3,0.1-0.6,0.2-0.8,0.4c-0.2,0.2-0.4,0.4-0.5,0.6
			c-0.1,0.2-0.2,0.5-0.2,0.8l0,0c0,0.3,0,0.5,0.1,0.8c0.1,0.2,0.3,0.4,0.4,0.6c0.3,0.2,0.6,0.4,0.9,0.5c0.5,0.2,1,0.3,1.5,0.4
			c0.9,0.1,1.8,0.5,2.6,1c0.5,0.4,0.8,1.1,0.8,1.8l0,0c0,0.4-0.1,0.8-0.3,1.1c-0.2,0.3-0.4,0.6-0.7,0.9c-0.3,0.3-0.7,0.5-1.1,0.6
			c-0.4,0.1-0.9,0.2-1.4,0.2"/>
		<polygon class="st0" points="106.1,84.5 113.4,84.5 113.4,85.2 106.8,85.2 106.8,89.2 112.7,89.2 112.7,89.9 106.8,89.9 106.8,94 
			113.4,94 113.4,94.7 106.1,94.7 		"/>
	</g>
</g>
<g>
	<g>
		<g>
			<defs>
				<path id="SVGID_1_" d="M33.3,26.3c0,13.6,11.6,21.8,25.1,22.9c14.5,1.2,24.1-9.3,24.1-22.9c0-13.6-11-25.7-24.6-25.7
					C44.4,0.6,33.3,12.7,33.3,26.3"/>
			</defs>
			<clipPath id="SVGID_2_">
				<use xlink:href="#SVGID_1_"  style="overflow:visible;"/>
			</clipPath>
			<path class="st1" d="M86.1,21.6l5.5,33.5c0,0-20.3,0.1-21.8,0c-1.5-0.1-3.2-0.5-4.5-1.9c-1.2-1.5-1.1-1.2-1.4-1.6
				c-0.3-0.4-2.9-2.7-3.7-3.6c-0.9-0.9-0.8-1.6-1.3-2.3c-0.5-0.7-1.5-1.4-2.3-1.7c-0.8-0.3-2-0.7-2.4-0.9c-0.5-0.1-1.3-0.9-2.1-1.1
				c-0.9-0.3-2.7-1.8-3.2-2.3c-0.5-0.6-1.3-1.4-1.7-1.8c-0.5-0.3-1.5-0.9-1.8-1.4c-0.3-0.5-1.6-2.1-2-2.4c-0.4-0.3-1.1-0.1-1.8-0.3
				c-0.6-0.2-1.5,0.1-1.9,0c-0.4-0.1-0.9-1-1.2-1.4c-0.3-0.3-1.3-0.7-1.5-1c-0.2-0.3-0.2-1.1-0.2-1.1l-0.4-0.4
				c-0.4-0.4-0.3-1.4-0.3-1.4c-1.2-1.9,0.3-2.7,0.3-2.7s0.3-0.5,0.9-1.1c0.6-0.6,2-1.1,3.2-1.5c1.2-0.4,4.3-2,4.6-2.3
				c0.3-0.3,1.5-0.8,2.1-1.5c0.6-0.7,3.1-1.9,3.4-2.2c0.1-0.1,0.4-0.4,0.8-0.7c-0.4-1.6-1-4.2,0.1-2.8c0.2,0.3,0.7,0.9,1.3,1.7
				c0.4-0.3,1.3-0.6,1.7-0.9c0.5-0.2,1.5-0.5,1.8-0.6c0.2-0.1,0.2-0.4,0.8-0.6c0.6-0.2,0.9-0.2,1.5-0.2c0.6-0.1,0.7,0,1.2,0.1
				c0.5,0.1,1.1,0,1.5-0.1c0.3,0,0.3-0.2,0.3-0.3l-0.1-0.1c-3.4-4.3-2.5-3.7-2.6-5c-0.1-1.3,0.5-1.2,0.6-0.3c0.1,1,1-1.2,1-1.2
				c2.6,2.9,4.7,4.4,5.7,5.1c0.2,0,0.3,0.1,0.4,0.1c0.2,0.1,0.6,0.4,1.4,0.4s0-0.5,0-0.5l0.6-0.4v0.7l1.2,1c0.4,0.4,0.5,0.5,0.5,0.5
				c0,0-0.5-0.3-0.5,0c0,0.2,0,0.2,0,0.2c0,0,0-0.1,0,0.1c0,0.3,0,0.5,0,0.7c0,0.2-0.1,0.5,0,0.7c0.1,0.3,0.5,0.6,0.8,1
				c0.3,0.4,0.3,0,0.3,0l0.6,0.1c0.6,0.1-0.6,0.3-0.6,0.3s1,0,1.5,0.1c0.2,0,0.3,0.1,0.3,0.1c0,0-0.3,0-0.3,0.1c0,0.2-0.3,0.2,0,0.5
				c0.1,0.1,0.2,0.1,0.2,0.1c0,0,0-0.1,0.2,0v0.3l0.2,0.3c0.2,0.3,0.6,0,0.6,0l0.3,0.1c0.1,0,0.1,0,0.2,0.1c0.1,0,0.1,0,0.8,0.1
				c0.3,0,0.4,0.1,0.4,0.1c0,0-0.4,0-0.2,0.2l1.8,0.3c0,0,0.5-0.2,1.4,0l0.3,0.3h0.3h0.6H80c0.6,0,0.4,0.3,0.4,0.3h0.3l0.2,0.1
				c0.2,0.1,0.3-0.1,0.7,0l0.2,0.1c0,0-0.1,0,0.1,0.1c0.1,0,0.2,0.1,0.2,0.1c0,0-0.1,0,0,0.1c0.2,0.1,0.3,0.4,0.6,0.5
				c0.1,0,0.2,0,0.2,0c0,0-0.1,0,0.1,0.1c0.2,0.1,0.4-0.1,0.7,0c0.3,0.1,0.3,0.5,0.3,0.5s0.3,0.3,0.6,0.5c0.2,0.1,0.2-0.1,0.5,0
				C85.2,21.3,85.5,21.5,86.1,21.6"/>
			<path class="st2" d="M86.1,21.6l5.5,33.5c0,0-20.3,0.1-21.8,0c-1.5-0.1-3.2-0.5-4.5-1.9c-1.2-1.5-1.1-1.2-1.4-1.6
				c-0.3-0.4-2.9-2.7-3.7-3.6c-0.9-0.9-0.8-1.6-1.3-2.3c-0.5-0.7-1.5-1.4-2.3-1.7c-0.8-0.3-2-0.7-2.4-0.9c-0.5-0.1-1.3-0.9-2.1-1.1
				c-0.9-0.3-2.7-1.8-3.2-2.3c-0.5-0.6-1.3-1.4-1.7-1.8c-0.5-0.3-1.5-0.9-1.8-1.4c-0.3-0.5-1.6-2.1-2-2.4c-0.4-0.3-1.1-0.1-1.8-0.3
				c-0.6-0.2-1.5,0.1-1.9,0c-0.4-0.1-0.9-1-1.2-1.4c-0.3-0.3-1.3-0.7-1.5-1c-0.2-0.3-0.2-1.1-0.2-1.1l-0.4-0.4
				c-0.4-0.4-0.3-1.4-0.3-1.4c-1.2-1.9,0.3-2.7,0.3-2.7s0.3-0.5,0.9-1.1c0.6-0.6,2-1.1,3.2-1.5c1.2-0.4,4.3-2,4.6-2.3
				c0.3-0.3,1.5-0.8,2.1-1.5c0.6-0.7,3.1-1.9,3.4-2.2c0.1-0.1,0.4-0.4,0.8-0.7c-0.4-1.6-1-4.2,0.1-2.8c0.2,0.3,0.7,0.9,1.3,1.7
				c0.4-0.3,1.3-0.6,1.7-0.9c0.5-0.2,1.5-0.5,1.8-0.6c0.2-0.1,0.2-0.4,0.8-0.6c0.6-0.2,0.9-0.2,1.5-0.2c0.6-0.1,0.7,0,1.2,0.1
				c0.5,0.1,1.1,0,1.5-0.1c0.3,0,0.3-0.2,0.3-0.3l-0.1-0.1c-3.4-4.3-2.5-3.7-2.6-5c-0.1-1.3,0.5-1.2,0.6-0.3c0.1,1,1-1.2,1-1.2
				c2.6,2.9,4.7,4.4,5.7,5.1c0.2,0,0.3,0.1,0.4,0.1c0.2,0.1,0.6,0.4,1.4,0.4s0-0.5,0-0.5l0.6-0.4v0.7l1.2,1c0.4,0.4,0.5,0.5,0.5,0.5
				c0,0-0.5-0.3-0.5,0c0,0.2,0,0.2,0,0.2c0,0,0-0.1,0,0.1c0,0.3,0,0.5,0,0.7c0,0.2-0.1,0.5,0,0.7c0.1,0.3,0.5,0.6,0.8,1
				c0.3,0.4,0.3,0,0.3,0l0.6,0.1c0.6,0.1-0.6,0.3-0.6,0.3s1,0,1.5,0.1c0.2,0,0.3,0.1,0.3,0.1c0,0-0.3,0-0.3,0.1c0,0.2-0.3,0.2,0,0.5
				c0.1,0.1,0.2,0.1,0.2,0.1c0,0,0-0.1,0.2,0v0.3l0.2,0.3c0.2,0.3,0.6,0,0.6,0l0.3,0.1c0.1,0,0.1,0,0.2,0.1c0.1,0,0.1,0,0.8,0.1
				c0.3,0,0.4,0.1,0.4,0.1c0,0-0.4,0-0.2,0.2l1.8,0.3c0,0,0.5-0.2,1.4,0l0.3,0.3h0.3h0.6H80c0.6,0,0.4,0.3,0.4,0.3h0.3l0.2,0.1
				c0.2,0.1,0.3-0.1,0.7,0l0.2,0.1c0,0-0.1,0,0.1,0.1c0.1,0,0.2,0.1,0.2,0.1c0,0-0.1,0,0,0.1c0.2,0.1,0.3,0.4,0.6,0.5
				c0.1,0,0.2,0,0.2,0c0,0-0.1,0,0.1,0.1c0.2,0.1,0.4-0.1,0.7,0c0.3,0.1,0.3,0.5,0.3,0.5s0.3,0.3,0.6,0.5c0.2,0.1,0.2-0.1,0.5,0
				C85.2,21.3,85.5,21.5,86.1,21.6z"/>
		</g>
		<g>
			<circle class="st3" cx="60.9" cy="27.5" r="21.9"/>
			<path class="st4" d="M82.4,27.5c0,11.9-9.7,21.6-21.6,21.6c-12,0-21.6-9.7-21.6-21.6c0-11.9,9.7-21.6,21.6-21.6
				C72.7,5.8,82.4,15.5,82.4,27.5"/>
			<circle class="st5" cx="60.7" cy="27.5" r="21.6"/>
			<circle class="st6" cx="60.7" cy="27.5" r="21.6"/>
		</g>
		<g>
			<defs>
				<path id="SVGID_3_" d="M33.5,26.3c0,13.4,11.5,21.5,24.9,22.7c14.3,1.2,23.8-9.2,23.8-22.7c0-13.4-10.9-24.3-24.3-24.3
					S33.5,12.8,33.5,26.3"/>
			</defs>
			<clipPath id="SVGID_4_">
				<use xlink:href="#SVGID_3_"  style="overflow:visible;"/>
			</clipPath>
			<path class="st7" d="M66.7,11.9c0,0-2.7-1.3-6.4-5.5c0,0-1.6-2.2-1.8-3.2c-0.2-1-0.7-1-0.6,0.3c0.1,1.3,0,5.1,3.4,9.3l1,1l4-0.2
				L66.7,11.9z"/>
		</g>
		<g>
			<defs>
				<path id="SVGID_5_" d="M57.9,3.6c0.1,1.3,0,5.1,3.4,9.3l0.2,0.2l1.7-0.1C59,8.8,58.1,2.8,58.1,2.8s0,0-0.1-0.1
					C58,2.8,57.9,3.1,57.9,3.6"/>
			</defs>
			<clipPath id="SVGID_6_">
				<use xlink:href="#SVGID_5_"  style="overflow:visible;"/>
			</clipPath>
			
				<linearGradient id="SVGID_7_" gradientUnits="userSpaceOnUse" x1="-330.09" y1="452.4309" x2="-328.6972" y2="452.4309" gradientTransform="matrix(2.3529 -2.0454 -2.0454 -2.3529 1760.516 399.1147)">
				<stop  offset="0" style="stop-color:#ABABAB"/>
				<stop  offset="0.5195" style="stop-color:#FFFFFF"/>
				<stop  offset="1" style="stop-color:#FFFFFF"/>
			</linearGradient>
			<polygon class="st8" points="52.7,7.2 60.9,0 68.4,8.6 60.2,15.7 			"/>
		</g>
		<g>
			<defs>
				<path id="SVGID_8_" d="M33.5,26.3c0,13.4,11.5,21.5,24.9,22.7c14.3,1.2,23.8-9.2,23.8-22.7c0-13.4-10.9-24.3-24.3-24.3
					S33.5,12.8,33.5,26.3"/>
			</defs>
			<clipPath id="SVGID_9_">
				<use xlink:href="#SVGID_8_"  style="overflow:visible;"/>
			</clipPath>
			<path class="st9" d="M66.7,11.9c0,0-2.7-1.3-6.4-5.5c0,0-1.6-2.2-1.8-3.2c-0.2-1-0.7-1-0.6,0.3c0.1,1.3,0,5.1,3.4,9.3l1,1l4-0.2
				L66.7,11.9z"/>
			<path class="st10" d="M85.7,21.6c-0.7-0.1-0.9-0.2-1.1-0.3c-0.2-0.1-0.2,0.1-0.4,0c-0.2-0.1-0.6-0.4-0.6-0.4s0-0.4-0.3-0.5
				c-0.3-0.1-0.5,0.1-0.7,0c-0.2-0.1,0.1-0.1-0.2-0.1c-0.3-0.1-0.4-0.3-0.6-0.4c-0.2-0.1,0.2,0-0.2-0.1c-0.3-0.1,0.1,0-0.3-0.1
				c-0.5-0.1-0.6,0.1-0.7,0l-0.2-0.1H80c0,0,0.2-0.3-0.4-0.3h-0.6h-0.6h-0.3L77,18.4c0.3,0.4-0.7,0.3-0.7,0.3l-1.7-0.3
				c0,0,0.2,0.3,0,0c-0.2-0.3,0.7-0.2-0.2-0.3c-0.9-0.1-0.6,0-0.9-0.1l-0.3-0.1c0,0-0.4,0.3-0.6,0l-0.2-0.3v-0.3
				c-0.3-0.2,0,0.1-0.3-0.2c-0.3-0.3,0-0.3,0-0.4c0-0.2,0.6-0.1,0-0.2c-0.6-0.1-1.3-0.1-1.3-0.1s-0.1-0.5-0.1-0.5
				c0,0-0.1,0.6-0.3,0.2c-0.3-0.4-0.7-0.7-0.8-1c-0.1-0.3,0-0.5,0-0.7c0-0.2-0.1-0.4,0-0.7c0-0.3,0.1,0.2,0-0.3
				c-0.1-0.4,0.1-0.4-0.1-0.9c-0.1-0.1-0.2,0.3-0.3,0.2c-0.9-0.7-1-1-1-1l-0.3-0.2c0,0,0.6,0.6-0.2,0.6c-0.7,0-1.2-0.3-1.3-0.4
				c-0.2-0.1-0.5-0.2-0.7-0.2s-0.8-0.1-1-0.1c-0.2,0.1-1.2,0.3-0.7,0.2c0.5-0.1,0.5,0.3,0.3,0.3h-0.5c-0.5,0-0.6-0.1-0.8,0.2
				l-0.1,0.2l-0.8,0.3c0,0,0.8,0.3,0,0.3h-0.8c0,0,0.2,0.3-0.3,0.3c-0.4,0.1-1,0.1-1.5,0.1c-0.5-0.1-0.7-0.1-1.2-0.1
				c-0.6,0.1-0.8,0.1-1.5,0.2c-0.6,0.2-0.6,0.5-0.8,0.6c-0.2,0.1-1.3,0.3-1.7,0.6c-0.4,0.2-1.4,0.6-1.8,0.9
				c-0.4,0.3-1.7,1.4-2.1,1.7c-0.3,0.3-2.7,1.5-3.4,2.2c-0.6,0.7-1.7,1.2-2.1,1.5c-0.3,0.3-3.4,1.9-4.5,2.3
				c-1.2,0.4-2.5,0.8-3.1,1.5c-0.6,0.6-0.9,1.1-0.9,1.1s-1.5,0.8-0.3,2.7c0,0-0.1,1,0.3,1.3l0.4,0.4c0,0,0.1,0.8,0.2,1.1
				c0.2,0.3,1.1,0.6,1.5,1c0.3,0.3,0.8,1.3,1.2,1.3c0.4,0.1,1.2-0.2,1.9,0c0.6,0.2,1.3,0.1,1.7,0.3c0.4,0.3,1.6,1.9,2,2.4
				c0.3,0.5,1.3,1.1,1.8,1.4c0.4,0.3,1.2,1.2,1.7,1.7c0.5,0.6,2.3,2,3.1,2.3c0.8,0.3,1.6,1,2.1,1.1s1.6,0.6,2.4,0.8
				c0.8,0.3,1.8,1,2.3,1.7c0.5,0.7,0.4,1.4,1.3,2.3c0.8,0.9,3.4,3.2,3.7,3.6c0.3,0.4,0.2,0.1,1.4,1.6c1.2,1.5,2.9,1.9,4.4,1.9
				c1.5,0.1,21.6,0,21.6,0L85.7,21.6z"/>
			<path class="st11" d="M51.4,13.8c0.7,0.9,3.2,4.6,6.7,6.2c0,0,1.2,0.6,3.7,0.7c0,0,0.3-1,0.4-1.1c0,0-0.3-0.3,0-0.6
				c0.3-0.2,0.6-0.4,0.7-0.6c0.2-0.1,0.6-0.3,0.6-0.3l0.4,0.2c0,0,0.2-0.1,0.3-0.2c0.1-0.1,0.2-0.1,0.4-0.1c0.2,0,0,0.3,0.2,0
				c0.1-0.3,0-0.3,0.3-0.3c0.3,0,0.4,0.1,0.5,0.1c0.1,0,0.5,0,0.5,0s1.2,0.9,1.1,2.1c-0.1,1.2,0.2,3.1-2.5,4.3
				c-2.7,1.2-10.1,0.7-13.3-6.5C51.6,17.7,49.8,11.7,51.4,13.8"/>
		</g>
		<g>
			<defs>
				<path id="SVGID_10_" d="M50.8,14.1c0.1,0.9,0.5,2.4,0.7,3.1c0,0.2,0.1,0.3,0.1,0.5c3.2,7.2,10.6,7.7,13.3,6.5
					c2.7-1.2,2.5-3.1,2.5-4.3c0-0.4-0.1-0.8-0.3-1.2c-0.1,0-0.2-0.1-0.2-0.1c0.2,4.8-4.9,4.5-4.9,4.5C53.3,22.8,50.8,14,50.8,14
					L50.8,14.1z"/>
			</defs>
			<clipPath id="SVGID_11_">
				<use xlink:href="#SVGID_10_"  style="overflow:visible;"/>
			</clipPath>
			
				<radialGradient id="SVGID_12_" cx="-253.9787" cy="459.5001" r="1.3928" gradientTransform="matrix(16.0171 0 0 -16.0171 4122.6831 7383.8306)" gradientUnits="userSpaceOnUse">
				<stop  offset="0" style="stop-color:#9B9A9A"/>
				<stop  offset="1" style="stop-color:#FFFFFF"/>
			</radialGradient>
			<rect x="50.8" y="14" class="st12" width="16.8" height="11.4"/>
		</g>
		<g>
			<defs>
				<path id="SVGID_13_" d="M63.1,18.4c-0.2,0.1-0.5,0.3-0.7,0.6c-0.3,0.2,0,0.6,0,0.6c-0.1,0.1-0.3,0.7-0.4,1
					c0,0.1,0.1,0.1,0.1,0.1l0.8,0c0,0,1.4-2.3,1.4-2.4c0,0,0,0,0,0c-0.1,0.1-0.2,0.1-0.2,0.1l-0.4-0.2c0,0,0,0-0.1,0
					C63.5,18.2,63.2,18.3,63.1,18.4"/>
			</defs>
			<clipPath id="SVGID_14_">
				<use xlink:href="#SVGID_13_"  style="overflow:visible;"/>
			</clipPath>
			
				<linearGradient id="SVGID_15_" gradientUnits="userSpaceOnUse" x1="-289.1288" y1="322.3875" x2="-287.7359" y2="322.3875" gradientTransform="matrix(1.6736 0.5438 0.5438 -1.6736 370.0383 715.6303)">
				<stop  offset="0" style="stop-color:#9B9A9A"/>
				<stop  offset="0.875" style="stop-color:#FFFFFF"/>
				<stop  offset="1" style="stop-color:#FFFFFF"/>
			</linearGradient>
			<polygon class="st13" points="62.1,17.4 65,18.3 64,21.3 61.2,20.4 			"/>
		</g>
		<g>
			<defs>
				<path id="SVGID_16_" d="M33.5,26.3c0,13.4,11.5,21.5,24.9,22.7c14.3,1.2,23.8-9.2,23.8-22.7c0-13.4-10.9-24.3-24.3-24.3
					S33.5,12.8,33.5,26.3"/>
			</defs>
			<clipPath id="SVGID_17_">
				<use xlink:href="#SVGID_16_"  style="overflow:visible;"/>
			</clipPath>
			<path class="st14" d="M51.4,13.8c0.7,0.9,3.2,4.6,6.7,6.2c0,0,1.2,0.6,3.7,0.7c0,0,0.3-1,0.4-1.1c0,0-0.3-0.3,0-0.6
				c0.3-0.2,0.6-0.4,0.7-0.6c0.2-0.1,0.6-0.3,0.6-0.3l0.4,0.2c0,0,0.2-0.1,0.3-0.2c0.1-0.1,0.2-0.1,0.4-0.1c0.2,0,0,0.3,0.2,0
				c0.1-0.3,0-0.3,0.3-0.3c0.3,0,0.4,0.1,0.5,0.1c0.1,0,0.5,0,0.5,0s1.2,0.9,1.1,2.1c-0.1,1.2,0.2,3.1-2.5,4.3
				c-2.7,1.2-10.1,0.7-13.3-6.5C51.6,17.7,49.8,11.7,51.4,13.8z"/>
		</g>
		<g>
			<path class="st15" d="M61.9,20.8c0,0,0.6,0.1,1.2-0.2c0,0-1,0.1-1.3,0L61.9,20.8z"/>
		</g>
	</g>
</g>
</svg>
