<?xml version="1.0" encoding="UTF-8"?> <svg xmlns="http://www.w3.org/2000/svg" xmlns:xlink="http://www.w3.org/1999/xlink" version="1.1" id="Layer_1" x="0px" y="0px" style="enable-background:new 0 0 708.8 168.8;" xml:space="preserve" viewBox="42.7 28.13 630 106.16"> <path d="M162.8,30.9v89c0,0,0,1.1,0.5,1.5c0.5,0.4,0.7,1,1,1.2c0.2,0.2,4.6,4.5,4.6,4.5s1.6,1.5,1.6,2.8s-1.1,1.9-1.4,2.1 c-0.3,0.2-0.8,0.2-1.1,0.2c-0.3,0-29.4,0-29.4,0s-1.9,0.2-2.6-1.5c0,0-0.6-1.6,0.6-2.7c1.2-1.1,1.6-1.4,2.1-2 c0.6-0.6,1.5-1.4,1.7-1.6c0.2-0.3,1.2-1.5,1.8-2s0.8-0.6,1-1c0.2-0.5,0.4-1.5,0.5-1.8s-0.1-1.2-0.1-1.5c0-0.4-0.1-1.1-0.1-1.6 c0-0.5,0-3.2,0-3.2s0-0.3,0.1-0.3c0.1-0.1,0.1-0.6,0-0.7c-0.1-0.1-0.2-0.3-0.2-0.5c0-0.2,0-5.7,0-5.7v-7.5V85.5V71.8v-2 c0,0,0-0.2,0.1-0.4c0.1-0.2,0.1-0.4,0.1-0.6s0-1.8,0-1.8s0-0.1-0.1-0.3c-0.1-0.1-0.1-0.4-0.1-0.8c0-0.4,0-6.9,0-6.9s0-0.6,0.1-0.6 s0.1-0.6,0.1-0.8s0-0.7-0.1-0.8c0,0-0.1,0-0.1-0.5c0-0.6,0-5.4,0-5.4s0-0.2,0.1-0.3s0.1-0.3,0.1-0.5s0-0.9,0-0.9s0-0.2-0.1-0.4 c-0.1-0.2-0.1-0.4-0.1-0.6c0-0.2,0-1.2-0.5-1.8c-0.6-0.7-2.7-1.7-3.2-2c-0.5-0.3-2.8-1.5-3-1.7c-0.2-0.2-1-0.8-1-1.7 s0.5-1.4,1.1-1.8c0.6-0.4,4.4-2.3,4.6-2.4s0.6-0.3,1-0.5s1.2-0.7,1.9-0.8c0.7-0.1,1.4-0.4,1.6-0.6c0.3-0.2,1-0.5,1.4-0.7 c0.4-0.2,1.1-0.6,1.7-0.7c0.6-0.2,1.1-0.5,1.4-0.7c0.3-0.2,1.3-0.5,1.7-0.5c0.5-0.1,1.1-0.5,1.9-0.7c0.7-0.2,2-0.8,2.4-1 c0.4-0.3,2-1.1,2.5-1.3c0.5-0.2,1.3-0.5,1.8-0.5C161.3,28.6,162.8,29.4,162.8,30.9z"></path> <path d="M131.6,99.4c0-1-0.1-1.4-0.5-3.6c-0.4-2.2-2-5.5-2.4-5.9c-0.4-0.5-1.3-2-1.6-2.3c-0.2-0.3-0.9-1-1.1-1.3 c-0.3-0.3-0.9-0.9-1.3-1.2c-0.4-0.3-3.1-2.4-4.1-2.9c-1-0.5-2.7-1.4-3.2-1.6c-0.5-0.1-0.8-0.3-1.6-0.6c-0.8-0.4-3.9-1.6-5.4-1.9 s-4.8-0.7-5-0.9c-0.2-0.1,0.9-0.5,1.8-0.7s6.6-2.9,10.6-5.8s5.6-5.3,7.4-8.4c1.8-3.1,2.2-8.2,2.2-9.5c0.1-1.3-0.2-4.7-1-6.8 c-0.8-2.1-2.4-4.7-4.7-7c-2.3-2.3-7.5-4.9-8.7-5.3c-1.2-0.4-9.5-3.1-15.1-3.6c-5.5-0.5-11.3-0.8-11.6-0.8c-0.3,0-0.4,0-0.5,0.1 c-0.1,0.1-0.5,0.1-0.8,0.1c-0.3,0-0.4,0-0.6-0.1c-0.1-0.1-0.3,0-0.4,0c-0.1,0.1-1.4,0.1-1.7,0.1s-0.3-0.1-0.4-0.1 c-0.1-0.1-0.3-0.1-0.3-0.1s-3.8,0-4,0s-0.6,0-0.6,0.1s-0.4,0.1-0.4,0.1s-0.9,0-1,0s-0.3,0-0.3-0.1c-0.1-0.1-0.4-0.1-0.4-0.1 s-0.5,0-0.8,0s-0.4,0.1-0.5,0.1c-0.1,0.1-0.6,0.1-0.9,0.1s-0.6,0-0.6-0.1s-0.5-0.1-0.5-0.1s-1.2,0-1.7,0s-0.7,0-0.8,0.1 c-0.1,0.1-0.2,0.2-0.5,0.2c-0.2,0-0.6-0.1-0.8-0.1s-0.3-0.1-0.3-0.1h-0.9c0,0-10.3,0-10.8,0s-0.8,0.1-0.8,0.1 c-0.1,0.1-0.9,0.1-0.9,0.1s-2.2,0-2.5,0s-0.5-0.1-0.5-0.1c-0.1,0-0.3-0.1-0.4-0.1c-0.1,0-2.6,0-4.8,0s-3.2,1.7-3.2,2.2 c0,0.5,0.3,1.5,0.6,1.8c0.2,0.3,0.6,0.7,0.7,1c0.2,0.3,1.4,1.5,1.7,1.8c0.3,0.3,1,0.9,1.2,1.3s1.3,1.3,2.6,2.7 c1.3,1.5,1.1,2.7,1.1,2.7v4.1c0,0,0,0.2,0,0.6c0,0.3,0.1,0.5,0.2,0.6c0.1,0.1,0.1,0.3,0.1,0.3s0,0.8,0,1.1c0,0.3-0.1,0.4-0.2,0.5 s-0.1,0.3-0.1,0.3s0,0.8,0,1c0,0.2,0.1,0.3,0.2,0.4c0.1,0.1,0.1,0.3,0.1,0.3s0,1.4,0,1.6c0,0.2-0.1,0.4-0.2,0.5 c-0.1,0.1-0.1,0.4-0.1,0.4s0,1.6,0,1.9s0,0.5,0.1,0.7c0.1,0.1,0.1,0.3,0.1,0.3s0,1.9,0,2.4s-0.1,0.6-0.2,0.7c-0.1,0-0.1,0.5-0.1,0.5 s0,15.5,0,15.9s0.1,0.4,0.1,0.5c0.1,0.1,0.1,0.4,0.1,0.4s0,0.8,0,0.9s0,0.5-0.1,0.5s-0.1,0.3-0.1,0.3s0,3.6,0,3.8 c0,0.1,0,0.5,0.1,0.7c0.1,0.2,0.1,0.7,0.1,0.9s0,0.5-0.1,0.6c-0.1,0.1-0.1,0.4-0.1,0.4s0,1.8,0,2.4s0,0.9,0.2,1.1 c0.1,0.2,0.1,0.5,0.1,0.5s0,1.5,0,1.7c0,0.2,0,0.5-0.1,0.6c-0.1,0.1-0.2,0.3-0.2,0.3s0,2,0,2.2s0,0.6,0.1,0.7 c0.1,0.1,0.2,0.3,0.2,0.7c0,0.4-0.1,0.9-0.3,1c-0.1,0-0.1,0.5-0.1,0.5s0,6.2,0,6.5s0.2,0.4,0.2,0.6c0,0.2,0,0.5-0.1,0.5 s-0.1,0.2-0.1,0.2s0,5.1,0,5.3c0,0.2,0.1,0.3,0.1,0.5c0,0.2,0,0.4-0.1,0.5s0,0.7,0,0.7s0,6.5,0,6.9c0,0.4-0.2,0.7-0.4,0.9 c-0.1,0.2-1.3,1.6-1.5,1.7c-0.2,0.2-0.4,0.8-0.5,1c-0.2,0.2-0.5,0.3-0.6,0.3c-0.1,0-0.5,0.6-0.9,0.9c-0.3,0.3-0.4,0.5-0.6,0.9 c-0.2,0.4-0.5,0.6-0.6,0.7c-0.1,0.1-0.2,0.2-1.2,1.2c-1,1-1.3,1.1-1.3,3.2c0,2.1,2.9,2.1,2.9,2.1s31.2,0.1,37,0 c5.8-0.1,11.3-0.5,15-1c3.6-0.5,9.4-1.8,12-2.6c2.6-0.9,6.6-2.6,7.3-3c0.7-0.3,4.1-2.7,4.5-3c0.4-0.3,1.1-0.7,1.3-0.9 s1.5-1.6,1.8-1.8s1.3-1.3,1.4-1.5c0.1-0.2,0.7-0.9,0.7-0.9c2-2.7,3-5.4,3-5.4C131.9,106.8,131.6,100.4,131.6,99.4z M75.8,37 c0,0,8.3,0.1,11,0.5s8.6,2.2,9.6,2.9s1.5,1,2,1.3s1.5,0.9,1.8,1.3c0.4,0.3,2.6,3,3,4c0.4,1,1.7,3.6,1.7,6.9c0,3.3-0.1,5.9-0.7,7.8 c-0.6,2-1,2.7-1.3,3c-0.3,0.4-1.8,2-2.1,2.3c-0.2,0.2-0.6,0.9-0.9,1.2c-0.3,0.3-2.2,1.5-2.5,1.7s-1.4,0.7-1.7,1 c-0.3,0.2-2.1,0.6-2.9,0.9c-0.8,0.3-2.9,0.7-4.1,0.8c-1.2,0.1-2.1,0.5-2.7,0.5s-1.2,0.1-1.4,0.1c-0.3-0.1-0.4-0.2-0.7-0.2 s-2.2,0-2.2,0s-0.3,0.1-0.5,0.1c-0.2,0.1-0.3,0.1-0.6,0.1c-0.3,0-0.5-0.2-0.8-0.2S75,73,75,73s-1.9-0.2-2.1-1.7c-0.2-1.5,0-25,0-25 v-7C72.8,39.2,72.5,37,75.8,37z M107.9,108.9c-0.3,1.3-1.3,4.1-1.4,4.6c-0.1,0.5-0.7,1.4-0.9,1.6c-0.2,0.2-1.1,1.3-1.5,1.9 c-0.3,0.6-1.8,1.8-2.5,2.3c-0.7,0.5-2.3,1.4-3.5,1.9c-1.2,0.5-4.3,1.5-5,1.8c-0.8,0.3-3.1,0.6-3.6,0.7c-0.5,0.1-1.1,0.2-1.8,0.3 c-0.7,0.1-2.2,0.2-2.8,0.2s-1.6,0.1-1.6,0.1h-8.5c0,0-2-0.1-2-2.6s0-38.9,0-38.9s0.5-1.7,2.1-1.9l0.8,0.1h9.2c0,0,8.6,0.8,13,4.1 c0,0,2.1,1.7,2.7,2.2c0.6,0.5,1.7,1.2,2.1,1.7c0.4,0.5,1,1.3,1.5,1.7c0.4,0.4,0.7,0.8,1,1.5s1.6,2.8,2,4.4s0.9,2.9,1,4.5 C108.2,102.5,108.2,107.6,107.9,108.9z"></path> <path d="M245.3,120.9c-1.2-0.8-5.4-3.3-5.7-3.6s-0.7-0.8-0.7-1.7s0-30.1,0-30.1s-0.3-9.5-2.4-14.7c-2.1-5.2-6.5-7.6-9.8-8.6 c0,0-3-0.8-4-0.9c-1-0.1-2.2-0.4-2.6-0.5c-0.4-0.1-1.2-0.3-2-0.3c-0.9,0-9.4,0-9.4,0s-4.1,0.3-5.5,0.6c-1.4,0.3-2.4,0.3-3,0.3 s-6.1,1.6-6.9,1.9c-0.8,0.3-2,0.9-2.4,1.1c-0.3,0.2-0.9,0.2-1.2,0.4c-0.3,0.3-1.5,0.8-2.2,1.3c-0.7,0.4-1.4,0.6-1.6,0.8 s-0.6,0.6-1,0.8s-1.6,1-1.9,1.4c-0.3,0.3-0.2,0.5-0.8,0.9c-0.6,0.4-0.8,1-1.3,1.5c-0.5,0.5-0.8,1.4-1.1,1.8 c-0.3,0.4-1.2,2.1-1.5,3.5c-0.3,1.4-0.9,8.3,5,11.1c0,0,1.7,0.9,6.3,0.9c0,0,5.4-0.7,7.7-4.8c2.4-4.1,5.7-11.1,6.4-12.2 c0.7-1.2,3.3-6.1,8.6-6.1c0,0,2.4-0.2,3.9,1c1.5,1.2,2,2.9,2.2,3.4s0.5,1.3,0.6,2.3c0.1,1,0.1,1.1,0.2,2.3c0,1.2,0,11.7,0,11.7 s0,1.2-0.3,1.6s-1.2,1.2-1.8,1.3s-0.8,0.1-1.3,0.3s-1.1,0.2-1.5,0.3s-1.5,0.4-2,0.7c-0.5,0.3-0.5,0.4-0.9,0.5 c-0.4,0.1-2.1,0.3-2.7,0.4s-2.4,0.3-4.4,0.9c-2,0.7-2.7,1-3.2,1.2s-4.8,2-5,2.1s-1,0.6-1.6,0.8c-0.7,0.2-2.1,0.7-2.5,0.8 s-2.4,1.4-2.8,1.6c-0.4,0.2-1.6,1-1.8,1.2c-0.2,0.2-1,1.1-1.5,1.4c-0.5,0.3-0.9,0.4-1.3,0.7c-0.3,0.2-1.3,1.6-1.8,2 c-0.5,0.4-0.6,0.5-1,0.8s-0.9,1-1.1,1.7c-0.2,0.7-0.5,1.2-0.7,1.4c-0.2,0.2-1.2,1.6-1.4,1.8c-0.2,0.2-0.7,1.4-0.8,1.7 s-0.1,1.5-0.4,2c-0.2,0.5-0.6,2.2-0.6,4s0.3,6,3.1,9.9c0,0,5.3,6.3,13.3,6.3c0,0,7,0.6,12.8-1.5c0,0,6.8-2.9,8.2-4.1 c1.4-1.2,2.3-1.6,2.8-1.5c0.6,0.1,2,1,2,2c0,1,0,2.9,0,2.9s0.1,2.6,2.3,2.6c0,0,0.6,0.2,2.9-0.8c2.3-1,19.5-7.9,19.5-7.9 s2.2-0.8,2.4-1.7S246.6,121.7,245.3,120.9z M219.4,116.8c-0.1,0.2-0.1,0.5-0.1,0.7c0,0.2-0.3,0.8-0.7,1.1c-0.3,0.3-0.9,0.6-1.4,0.8 s-1.1,0.3-1.6,0.5c-0.4,0.2-1.2,0.8-1.7,1c-0.4,0.2-0.9,0.3-1.6,0.3c-0.7,0-1.5,0.1-1.8,0.1c-0.3,0-0.7,0.1-1.7,0.1 c-1,0-2.5,0.1-3.3-0.2c-0.8-0.3-1.8-0.4-2.6-0.9c-0.8-0.5-2.2-1.6-2.4-2c-0.2-0.4-0.5-0.9-0.8-1.2c-0.3-0.3-0.7-1.4-0.8-1.6 c-0.1-0.3-0.5-1.5-0.5-2.4c0-0.9,0-2.8,0.6-4.4c0.6-1.6,2.2-4.4,4-5.9c0,0,0.9-1,1.2-1s0.6-0.4,0.9-0.6s0.6-0.6,0.9-0.8 c0.4-0.3,0.6-0.4,1-0.6c0.3-0.2,0.8-0.5,1.2-0.7c0.3-0.2,2.2-1.4,2.8-1.7c0.6-0.3,2.2-1.3,2.9-1.5c0.7-0.3,1.9-0.7,2.1-0.8 c0.2-0.1,0.6-0.2,1.2-0.2c0.6,0,1.4,0.4,1.7,1.5c0,0,0.1,0.8,0.1,1c0,0.2,0.2,0.4,0.1,0.7c-0.1,0.3-0.1,0.3-0.1,0.5 c0,0.2,0,2.3,0,2.4c0,0.2,0.1,0.3,0.1,0.5c-0.1,0.2-0.1,0.8-0.1,1.3l0,0v11.1c0,0,0,1.4,0.1,1.7 C219.5,115.8,219.4,116.6,219.4,116.8z"></path> <path d="M272.9,72.4c0,0,2.2-2.3,4.3-3.2s4.4-1.6,7.6-1.5c3.1,0.1,6,1,6.7,2s2,4.2,2.3,5.2c0.3,1,1.9,5.9,2.2,6.5s2,5.6,2.1,6 s1.5,3.3,2,3.7c0.5,0.4,1.7,0.6,2.4,0.6s2.4-0.5,3.1-2.1s7.5-14.3,7.5-14.3s1-1.7,1-2.6s-0.6-2-1.7-3c-1.1-1-3.1-2.3-3.8-2.8 c-0.6-0.5-8.3-6.6-20.6-7.1c0,0-2.8,0-3.3,0.1s-1,0.1-1.4,0c-0.5-0.1-1.5-0.1-1.8,0c-0.3,0.1-1.3,0.3-1.7,0.4 c-0.4,0.1-0.9,0.1-1.6,0.2c-0.7,0.1-1.6,0.1-2.6,0.5c-1,0.4-4.2,1.5-4.6,1.7s-2.5,1.1-3.7,1.7c-1.2,0.6-2.4,1.7-2.8,2 c-0.4,0.3-0.8,0.4-1,0.7c-0.2,0.2-0.7,0.6-0.9,0.9c-0.2,0.3-0.6,0.9-1,1.2s-1,0.6-1.2,0.7c-0.2,0.1-0.8,0.9-1.2,1.2 c-0.4,0.3-0.3,0.6-0.7,1c-0.4,0.3-0.6,0.7-0.8,1c-0.2,0.2-0.6,0.6-0.7,0.8c-0.1,0.2-0.1,0.8-0.5,1.2c-0.4,0.3-1,1.3-2,3.1 c-1,1.8-2.4,5.1-3,7.6c-0.6,2.6-1.3,5.9-1.5,10.6s1.4,10.8,1.7,12.5c0,0,0.4,1.4,0.7,1.8c0.3,0.4,0.4,1.1,0.6,1.7 c0.2,0.6,1.7,3.1,2,3.8c0.3,0.7,3.5,5.4,4.3,6.2c0.8,0.8,0.9,1.1,1.1,1.4s0.6,0.6,1,0.9s2.5,2,3.7,3c1.1,1,6.1,3.5,8.1,4.2 c2.1,0.7,8.1,2.1,13.5,2.1c5.4,0,12.3-2,15.2-3.7c2.8-1.7,5.7-4.8,6-5.2s0.8-1.4,1.2-1.9s2.4-3.8,2.8-4.7s0.3-2.8-1.2-4.1 c-1.5-1.3-3.8-0.4-4.7,0.3c-0.9,0.7-3.2,2.1-4.4,2.4c-1.2,0.3-2.2,0.3-3.5,0.5c-1.2,0.3-3.7,0.5-5.1,0.5c-1.4,0-5.5,0.1-8.3-0.9 c-2.9-1-8.2-3.4-12.2-8.8s-5.1-11.6-5.4-15.8S266.7,79.3,272.9,72.4z"></path> <path d="M346.6,86.5c0,0-0.1,3.8,2.3,3.8c0.1,0,1.4,0,2.7-1.3c1.3-1.3,1.9-1.8,2.5-2s1.4-1.2,1.7-1.5c0.3-0.3,0.9-1.6,1.9-2.2 c0.9-0.6,3-2.2,3.9-3c0.9-0.8,2.1-2,2.3-2.7c0.2-0.7,0.5-1.2,0.7-1.7c0.2-0.5,0.6-1.9,0.6-2.2c0-0.4,0.1-0.9,0.1-1.3 s-0.2-1.2-0.2-1.5c0-0.3,0-6.3,0-6.3s0.3-1.7,0.6-2.1c0.3-0.5,0.9-1,1.3-1c0.4,0,4,0,4,0s0.4-0.1,0.6,0.1c0.2,0.1,0.6,0.2,0.8,0.2 s0.5,0,0.7-0.2c0.2-0.1,0.6-0.1,1.2-0.1c0.6,0,13.7,0,13.7,0h0.7c0,0,0.3,0,0.4,0c0.1,0.1,0.3,0.1,0.6,0.2c0.3,0,0.7,0,0.7-0.1 c0.1-0.1,0.2-0.2,0.4-0.2s4.4,0,4.4,0s2.3,0.1,2.3,2.3c0,0,0.4,0.8-2.2,2.9s-9.5,6.8-9.5,6.8s-10.7,8.1-12.1,9.3 c-1.4,1.1-6.4,5.1-6.6,5.4c-0.2,0.2-0.6,0.8-0.6,1.4c0,0.6,0.5,1.5,1.4,2.7c0.9,1.2,8.1,10.2,8.1,10.2l12.6,16c0,0,3.9,4.1,4.2,4.4 c0.3,0.3,0.7,0.5,1.1,0.9s1.5,1.6,1.7,1.7c0.2,0.1,0.2,0.1,0.6,0.4s0.5,0.6,0.9,0.8s0.8,0.9,1.2,1.1c0.4,0.2,1,1,1,1.4 c0,0.4,0.3,3-2,3s-30.9,0-30.9,0s-1.9-0.3-1.9-2.5c0,0-0.2-1.2,0.9-2c1.1-0.8,2-2.3,2.3-3c0.3-0.7,0.5-1,0.2-1.8 c-0.3-0.7-4.5-6-4.7-6.3c-0.2-0.2-4.2-5.5-4.7-6.1c-0.5-0.6-3.2-4-3.3-4.3c-0.2-0.3-2-2.6-2.1-2.8c-0.1-0.2-0.1-0.5-0.3-0.8 c-0.2-0.3-0.9-0.5-1.1-0.8c-0.2-0.3-0.4-0.7-0.5-0.8c-0.2-0.2-0.7-0.7-1.1-0.9c-0.4-0.2-0.8-0.5-1.2-0.5c-0.4,0-1.4,0.3-1.8,0.9 c-0.3,0.6-0.4,1.8-0.4,2.9c0,1,0,16.6,0,16.6s0,0.8,0.3,1.2c0.2,0.4,1.9,2,2.4,2.4c0.5,0.4,0.5,0.7,0.8,1s2.2,2.2,2.6,2.6 s1.5,1.6,1.5,2.5c0,0.9-0.8,2.5-2,2.5c-1.2,0-30.7,0-30.7,0s-1.9-0.4-1.9-2.5c0,0-0.2-1.2,1.5-2.7s1.9-1.9,2.1-2.1s0.5-0.3,0.7-0.5 c0.3-0.2,0.8-0.4,1.2-0.8s1.9-1.9,1.9-2.8c0-0.9,0-19.6,0-19.6v-0.4c0,0,0-0.2,0.1-0.3c0.1-0.1,0.1-0.3,0.1-0.5 c0-0.3-0.2-0.7-0.2-0.8c0-0.1,0-0.6,0-0.6v-3.8c0,0,0-0.4,0.1-0.5c0.1,0,0.1-0.4,0.1-0.5c0-0.2-0.2-0.4-0.2-0.5s0-0.5,0-0.5 s0-0.3,0.2-0.4s0-0.4,0-0.6s-0.2-0.4-0.2-0.5c0-0.1,0-1.4,0-1.4v-1.7c0,0,0-0.2,0.1-0.3c0.1-0.1,0.1-0.4,0.1-0.6 c0-0.2-0.2-0.4-0.2-0.6c0-0.2,0-0.9,0-0.9V66.5c0,0,0.1-0.1,0.2-0.2s0.1-0.5,0.1-0.7c0-0.2-0.2-0.6-0.2-0.8c0,0-0.1-0.2-0.1-0.5 c0-0.4,0-3.6,0-3.6s0.1-0.3,0.2-0.5s0-0.7,0.1-0.8c0-0.1,0.2-0.1,0.2-0.4s-0.2-0.6-0.2-0.8s0-1.6,0-1.6s-0.1-0.3-0.2-0.5 c-0.1-0.3-0.1-0.5-0.1-0.7c0-0.2,0.1-0.9,0.3-1.3c0.2-0.4,0.4-0.5,0.4-0.9s-0.1-0.9-0.3-1.3c-0.2-0.3-0.5-0.6-0.5-0.9s0-3,0-3 s-0.2-0.9-0.7-1.3c-0.5-0.5-2.7-1.6-3.3-1.9c-0.5-0.3-3.2-1.7-3.6-2.2c-0.4-0.5-0.7-0.7-0.7-1.6s0.1-1.7,1-2.1 c0.9-0.4,2.2-0.6,2.8-0.9c0.6-0.3,2.7-1.7,3.2-1.8c0.5-0.1,1.3-0.1,1.7-0.3c0.4-0.2,0.8-0.5,1.4-0.6c0.6-0.1,2.8-1.5,3.1-1.7 c0.4-0.2,1-0.4,1.4-0.6c0.4-0.2,4.1-1.5,4.8-1.9c0.7-0.4,2.6-1,3.1-1.3c0.6-0.3,1.7-0.9,2.1-1s3-0.5,3,1.7S346.6,86.5,346.6,86.5z"></path> <path d="M415.6,114.3v3.8c0,0,0,1,0.2,1.3c0.2,0.3,0.1,1.2-0.1,1.6c-0.2,0.5-1.6,2.5-2.1,2.8c-0.5,0.3-1.9,1.6-2,1.9 c-0.1,0.3-0.3,0.6-0.6,0.8c-0.3,0.3-2.2,1.8-2.5,2.2c-0.3,0.4-0.3,1.7-0.3,1.9c0,0.3,0.7,1.3,1.2,1.5s0.9,0.2,2.9,0.2 c2,0,28.3,0,28.3,0s2.1-0.5,2.1-1.8c0-1.3,0-1.9-1.1-2.9c-1.2-1-1.4-1.4-1.6-1.8c-0.2-0.3-1.9-2-1.9-2s-2.5-2.4-2.6-2.5 s-0.2-0.4-0.2-0.9s0-89.4,0-89.4s-0.2-1.5-1.3-1.9c0,0-0.4-0.2-0.8-0.4s-1-0.1-1.9,0.3s-2.8,1.3-3.4,1.6c-0.6,0.3-1.2,0.4-1.6,0.8 s-1,0.6-1.3,0.7c-0.4,0.1-1.4,0.1-2,0.4c-0.6,0.3-2.7,1.3-3.3,1.6c-0.6,0.3-1.3,0.6-1.9,0.8c-0.6,0.2-2.1,1-2.6,1.2 c-0.5,0.2-1.5,0.3-1.8,0.5c-0.4,0.2-1.7,1.3-2.2,1.5s-0.8,0.2-1.2,0.3c-0.4,0-1.3,0.2-1.6,1.7c-0.3,1.6,0.4,2.1,1.2,2.6 c0.8,0.5,4.5,2.5,5.1,2.9s1.2,0.9,1.2,1.7s0,18.7,0,18.7v0.8c0,0-0.1,0.2,0.1,0.4c0.1,0.2,0.1,0.8,0.1,0.8s-0.2,0.3-0.2,0.6 s0,3.5,0,3.5s0.1,0.5,0.1,0.6c0.1,0.1,0.1,0.6,0.1,0.8s0,0.8-0.1,0.9c-0.1,0.1-0.1,0.4-0.1,0.9s0,3.6,0,3.6s0,0.2,0.1,0.5 s0.1,0.5,0.1,0.8c0,0.3-0.1,0.6-0.1,0.7s-0.1,0.4-0.1,0.7c0,0.3,0,2.7,0,2.7s0.1,0.2,0.2,0.6c0,0.3-0.1,0.6-0.1,0.9s0,15.8,0,15.8 s0,0.5,0.2,0.7c0.1,0.2,0.1,1.2,0.1,1.5c0,0.3-0.1,0.3-0.2,0.7v1.8c0,0-0.1,0.4,0,0.6c0.1,0.2,0.2,0.6,0.2,1s0,0.7,0,0.7 s0,0.3-0.1,0.4s-0.2,0.3-0.2,0.8S415.6,114.3,415.6,114.3z"></path> <path d="M519,86.8c-2.2-7.7-5.4-11.9-5.9-12.6s-3.5-4.2-4.1-4.6c-0.6-0.4-1.2-1-1.7-1.4s-1.9-1.5-2.4-1.9c-0.5-0.4-1.6-1.1-2.2-1.4 c-0.6-0.3-3.2-1.8-3.9-1.9c-0.7,0-1.6-0.5-2-0.8s-3.9-1.3-4.9-1.4c-1-0.1-1.7-0.5-3-0.6c-1.3-0.2-5.9-0.2-6.7-0.2 c-0.7,0-2.2,0.1-2.9,0.1c-0.8,0-2.1,0.2-2.9,0.5c-0.8,0.3-2.9,0.5-2.9,0.5c-1-0.1-2.7,0.9-3,1.1c-0.3,0.2-1.4,0.4-2,0.6 c-0.6,0.1-2.7,1.7-3.2,2.1c-0.5,0.3-0.8,0.4-1.3,0.5c-0.5,0.1-1.2,0.5-1.5,0.7c-0.3,0.2-0.3,0.2-0.5,0.4c-0.2,0.2-0.6,0.8-1,1 c-0.4,0.2-1.5,1-1.8,1.3c-0.3,0.2-1.4,1.5-1.7,1.8c-0.4,0.3-1.3,1-1.6,1.3c-0.3,0.3-1.1,1.3-1.4,1.7c-0.3,0.4-0.3,0.8-0.5,1 c-0.1,0.2-0.4,0.6-0.6,1c-0.2,0.4-1.2,1.5-1.5,1.8c-0.3,0.4-0.8,2-1,2.5c-0.2,0.5-0.3,1.1-0.7,1.6c-0.4,0.5-0.9,1.3-1.3,2.3 c-0.3,1-1.4,5-1.5,5.8s-0.3,1.6-0.4,2c-0.1,0.4,0,0.7,0,1.1c0,0.4-0.1,0.5-0.1,0.7c0,0.2,0.1,2.7,0,3.2s0,0.7-0.1,0.9 c-0.1,0.3-0.2,1-0.2,2.6c0.1,1.6,0.9,5.5,1.2,6.9c0.3,1.4,1.1,4.2,2.7,7.3c1.5,3.1,3.1,5.1,3.5,5.7c0.4,0.6,0.8,1.1,1,1.4 s3.2,3.3,3.9,4c0.7,0.6,0.6,0.5,0.9,0.8s2.5,1.9,3.9,2.7c1.4,0.9,5.5,2.8,5.5,2.8c8.8,2.9,13.7,2.5,17.1,2.4c3.4-0.2,7.8-1,11.8-2.8 c4-1.8,6.6-3.6,7-3.9c0.4-0.3,0.8-0.5,1.1-0.7c0.3-0.2,1.2-1,1.5-1.3s2.8-2.7,3.1-2.9c0.3-0.3,0.8-0.6,0.9-1 c0.1-0.3,0.9-1.2,2.7-3.8c1.8-2.6,3.4-6.9,3.4-6.9c1.9-4.7,2.3-11.3,2.3-15.2S519,86.8,519,86.8z M497.6,106.9 c0,0.1-0.1,0.1-0.2,0.5c-0.1,0.3-0.1,0.6-0.2,1.1c-0.1,0.5-0.1,2.5-0.1,2.5s-0.3,2.3-0.5,3c-0.2,0.7-0.3,1.5-0.5,2.3 c-0.2,0.8-1.1,3.2-1.3,3.6c-0.1,0.4-1.9,2.4-2.3,2.9c-0.3,0.5-1.7,1.8-2,2c-0.3,0.2-1.6,1-4.5,1.7c0,0-0.6,0.1-1.5,0.2 c-0.9,0.1-2.2-0.2-3.1-0.3c-0.8-0.1-1.5-0.1-3.2-0.8c-1.7-0.7-3.2-2-3.5-2.2c-0.3-0.2-1-1.3-1.3-1.6s-1.5-2.2-1.7-2.7 c-0.2-0.5-1.4-3.8-1.8-6c-0.4-2.2-0.6-5.2-0.6-6.8s0-19.8,0-19.8s0.2-7.2,2.1-11.3c0,0,0.9-2.4,1.7-3.3c0.8-0.9,0.9-0.9,1.2-1.2 c0.2-0.3,2-2,2.8-2.3c0.8-0.3,2.9-1.3,5.9-1.2c0,0,4.7-0.1,7.1,1.9c0,0,1.2,0.9,1.6,1.3s1.5,1.5,1.9,2.4c0.4,0.9,2.3,4.3,3,9.1 c0.6,4.8,0.6,10.4,0.6,10.8s0.1,0.8,0.1,1.2c0,0.3,0,0.5-0.1,0.8c0,0.1-0.1,0.2-0.1,0.3c0,0,0,0.4,0,0.8c0,0.4-0.1,3.4,0,3.5 c0.1,0.1,0.3,0.7,0.1,0.9s-0.1,0.6-0.1,0.9s0.2,0.3,0.2,0.7c0,0.4-0.1,0.8-0.2,1.2c-0.1,0.3,0,1.1,0,1.1v1c0,0,0,0.5,0.1,0.8 S497.7,106.8,497.6,106.9z"></path> <path d="M560.7,67.7c0,0,6.2,0.3,7.2,2s1.8,4,2.2,5.1c0.4,1.1,1.3,3.2,1.7,4.4s0.8,2.5,1,3.1c0.2,0.6,0.8,1.2,1.3,2.9 c0.5,1.7,1.3,3.1,1.4,3.7c0.1,0.6,0.9,2.4,2.1,2.8h2.1c0,0,1.1-0.5,1.8-1.2c0.7-0.7,1.7-2.6,1.8-3c0.1-0.4,1.5-2.9,1.6-3.1 c0.1-0.2,3.2-6.2,3.7-7s1.6-3.1,1.7-3.4c0.1-0.3,0.2-1.5,0.1-2c-0.1-0.5-0.8-1.7-1.9-2.6s-2.1-1.6-2.8-2.1c-0.7-0.6-2.8-1.8-4.2-2.5 c-1.4-0.7-4.8-2.8-9.3-3.8c0,0-2.3-0.4-3.3-0.5c-1-0.1-2.1-0.3-2.8-0.3c-0.7-0.1-1.1-0.2-1.9,0c-0.8,0.1-1.9,0.2-2.7,0.1 c-0.7,0-3.2-0.1-4.3,0c-1.1,0.1-5.1,1-6.8,1.6s-3.5,1.4-4.2,1.7c-0.6,0.3-1.2,0.6-1.7,0.9c-0.5,0.3-1.2,1-1.6,1.2 c-0.4,0.2-1.1,0.4-1.4,0.7c-0.3,0.3-0.6,0.3-0.9,0.8c-0.3,0.5-0.7,0.7-1.2,1s-2.2,1.8-2.7,2.4c-0.5,0.6-0.5,0.7-0.7,1.1 c-0.2,0.4-0.6,0.9-0.9,1c-0.3,0.1-0.7,0.5-0.8,0.9c-0.2,0.3-0.6,0.8-0.7,0.9c-0.2,0.1-1.1,1.7-1.3,2s-1.2,2-1.4,2.4 c-0.2,0.5,0,0.6-0.5,1.6c-0.5,1-1.6,2.8-1.6,3.5c0,0.7-0.3,2.4-0.6,3.1c-0.3,0.7-1.1,4.1-1.2,5.5c-0.1,1.4,0.2,2.1,0,3 s-0.4,2.5-0.1,4.4c0.3,1.8,0.7,5.7,1.6,8.8c0.9,3.1,2.5,6.6,2.8,7.1s0.7,0.6,1,1c0.3,0.3,0.4,1,0.4,1.4s0.2,0.5,0.6,1 c0.4,0.5,2.1,2.6,2.6,3.4c0.5,0.7,3.4,3.8,6.4,5.7c3.1,1.9,7.7,4.2,11.4,5c0,0,9.7,2,17.8,0c0,0,6.1-1.9,8.4-3.8 c0,0,1.3-0.8,1.7-1.1c0.3-0.3,1.6-1.5,2.1-2.1c0.6-0.7,3.8-4.5,4.5-6.2s0.6-4-0.1-4.7c-0.7-0.7-1.5-1.1-1.9-1c-0.4,0-1.2,0-1.4,0 c-0.2,0-0.9,0-1.9,0.8c-1,0.7-2.5,1.4-3.4,1.6c-0.9,0.1-2.1,1.2-3.4,1.4s-7.2,0.7-10,0.4c-2.8-0.3-8.4-1.7-12.9-5.7 c-4.5-4-6.3-8.7-6.5-9.3s-1.7-4.7-2.2-8.1c-0.6-3.5-0.5-9.8,0.3-13c0.8-3.2,1.8-5.4,3-7.3c1.2-1.9,2.1-2.6,2.4-2.8s1.3-1,1.9-1.4 c0.6-0.4,3.9-2.1,5.7-2.4S559.5,67.5,560.7,67.7z"></path> <path d="M639.6,61.9c0,0,0.6-0.4,1-0.3c0.3,0.1,0.4,0.2,0.8,0.2c0.3,0,2,0,2,0s0.1,0.1,0.3,0.2c0.2,0.1,0.8,0.1,0.9,0 c0.1-0.1,0.3-0.2,0.6-0.3s0.3-0.1,0.6-0.1c0.4,0,5.2,0,5.2,0s0.1,0,0.2,0.1c0,0.1,0.1,0.2,0.4,0.2c0.3,0,1.3,0,1.3,0 s0.1-0.1,0.1-0.2s0.2-0.1,0.4-0.1c0.2,0,15.4,0,15.4,0s2.1,0.3,2.1,2.1s-1.2,2.3-1.7,2.7s-4.7,3.6-5.1,3.9c-0.3,0.3-4.2,2.8-4.4,3.1 c-0.2,0.3-3.3,2.4-3.8,2.8c-0.5,0.4-5.2,4-6,4.6s-4.4,3.5-5.4,4.3c-0.9,0.9-1.7,1.2-1.9,1.5c-0.2,0.2-0.7,0.4-1,0.7 s-1.1,1.2-1.3,1.4s-0.5,1.1,0,2.1c0.5,1,1.6,2.4,2.1,2.9c0.6,0.6,1.1,1.3,1.4,1.8c0.3,0.5,1.9,2.6,2.5,3.2c0.5,0.6,0.9,1.2,1.6,1.9 c0.8,0.8,2.4,3.1,3.3,4.3s2.9,3.5,3.2,4.1c0.3,0.5,2.8,3.7,3.3,4.3c0.5,0.6,2.5,3.3,3.1,3.8c0.6,0.5,2.1,2.7,2.4,3.1 c0.3,0.4,4.2,4,5.1,4.8c1,0.9,3,2.6,3.4,3c0.4,0.4,1,1.3,1,1.8s-0.1,2.6-2.1,2.6s-30.9,0-30.9,0s-1.8-0.1-1.8-2c0-2,0.7-2.3,1.4-3 s2-2,2-3.1c0-1.1-0.4-2.1-1.7-3.6c-1.3-1.5-6.5-8.3-6.5-8.3s-2.7-3.6-3-4s-0.5-0.8-1-1.4c-0.4-0.5-4.5-5.5-4.5-5.5s-0.8-1.8-2.4-1.8 c-1.6,0-2.1,1.3-2.1,2.6c0,1.4,0,17.8,0,17.8s0,1.1,1,2.1c1,1,5.4,5.4,5.7,5.8c0.3,0.4,0.8,0.9,0.8,1.9s-0.6,2.4-2.6,2.4 s-29.6,0-29.6,0s-2.1,0.1-2.4-1.8c0,0,0-0.6,0.3-1.2c0.3-0.6,0.1-0.8,0.7-1.5c0.5-0.6,2.6-2.5,2.9-3c0.4-0.5,0.4-0.8,1.1-1.2 c0.7-0.5,2.4-1.6,2.4-2.4c0-0.9,0-5.3,0-5.3s0.1-0.4,0.2-0.5c0.1-0.1,0.1-0.3,0.1-0.7s0-2,0-2s-0.1-0.5-0.2-0.7 c-0.1-0.2,0-0.8,0-0.8s-0.1-0.3-0.1-0.5c0-0.2,0-13.6,0-13.6v-3.7c0,0,0.1-0.1,0.2-0.3c0.1-0.2,0.1-0.6,0.1-0.7c0-0.1,0-0.8,0-0.8 s0-0.1-0.1-0.3c-0.1-0.2-0.1-0.5-0.1-0.8s0-2.3,0-2.3s0.1-0.2,0.2-0.3c0.1-0.1,0.1-0.3,0.1-0.7s0-1.2,0-1.2s-0.1-0.1-0.2-0.3 c0-0.2-0.1-0.2-0.1-0.6s0-2.3,0-2.3s0-0.5,0.1-0.5c0.1-0.1,0.2-0.2,0.2-0.5c0-0.3,0-1.3,0-1.3s0-0.1-0.1-0.3 c-0.1-0.2-0.1-0.4-0.1-0.6s0-2.6,0-2.6s0.1-0.3,0.1-0.5c0-0.3-0.1-0.6-0.1-1c0-0.3,0-22.7,0-22.7s0-0.5,0.1-0.6 c0.1-0.1,0.2-0.1,0.2-0.5s0-1.1,0-1.1s-0.2-0.2-0.2-0.5c0-0.2,0-2.8,0-2.8s-0.1-0.3-0.8-0.9c-0.7-0.6-2.8-1.7-4-2.5 c-1.2-0.8-3.1-1.4-3.1-2.8c0-1.4,0.5-3.2,2.9-3.7c0,0,1.6-0.2,2.3-0.6c0.7-0.3,2.2-1.4,3-1.6c0.8-0.2,1.9-0.6,2.4-0.8 c0.6-0.2,3.9-2.1,4.7-2.3c0.7-0.2,1.5-0.3,2.6-0.9c1.1-0.5,3.6-1.9,4.5-2.1c0.9-0.2,1.7-0.6,1.9-0.7c0.2-0.1,0.8-0.4,1.3-0.2 c0.5,0.2,1.8,0.8,1.8,2.2c0,1.4,0,57.2,0,57.2s0,2.1,2.2,2.1c0,0,1.4-0.3,1.7-0.7c0.3-0.3,0.9-0.7,1.3-0.8s1.3-1.1,1.4-1.4 c0.1-0.3,0.2-0.6,0.4-0.7c0.2-0.2,0.7-0.5,0.9-0.7s0.9-0.8,1.2-1c0.3-0.2,0.8-0.8,1.4-1.1c0.6-0.3,0.8-0.7,1.1-1 c0.3-0.3,0.6-0.9,1.1-1c0.5-0.1,0.8-0.2,1.2-0.5s2.1-2.4,2.5-2.8c0.4-0.4,1.2-2.2,1.4-2.6c0.3-0.4,0.7-2.3,0.7-3.4s0-8.4,0-8.4 S638.8,62.2,639.6,61.9z"></path> </svg> 