<?xml version="1.0" encoding="utf-8"?>
<!-- Generator: Adobe Illustrator 27.6.1, SVG Export Plug-In . SVG Version: 6.00 Build 0)  -->
<svg version="1.1" id="Layer_1" xmlns="http://www.w3.org/2000/svg" xmlns:xlink="http://www.w3.org/1999/xlink" x="0px" y="0px"
	 viewBox="0 0 154.5 110.7" style="enable-background:new 0 0 154.5 110.7;" xml:space="preserve">
<style type="text/css">
	.st0{clip-path:url(#SVGID_00000025434899863993544640000016076724434289025705_);fill:#ece0d0;}
	.st1{fill:#ece0d0;}
</style>
<g>
	<g>
		<defs>
			<rect id="SVGID_1_" x="-40.2" y="4" width="234.8" height="102.7"/>
		</defs>
		<clipPath id="SVGID_00000074423927677049344420000013810394140064300945_">
			<use xlink:href="#SVGID_1_"  style="overflow:visible;"/>
		</clipPath>
		<path style="clip-path:url(#SVGID_00000074423927677049344420000013810394140064300945_);fill:#ece0d0;" d="M18.4,93.2
			c-0.2,0-0.4,0.1-0.5,0.2c-0.2,0.1-0.2,0.3-0.2,0.5c0,0.2,0.1,0.4,0.2,0.5c0.1,0.1,0.3,0.2,0.5,0.2c0.2,0,0.4-0.1,0.5-0.2
			c0.1-0.1,0.2-0.3,0.2-0.5c0-0.2-0.1-0.4-0.2-0.5C18.8,93.3,18.6,93.2,18.4,93.2"/>
		<polygon style="clip-path:url(#SVGID_00000074423927677049344420000013810394140064300945_);fill:#ece0d0;" points="24.7,101.7 
			23.6,93.2 22.4,93.2 24,104.3 25.4,104.3 27.2,93.2 26,93.2 		"/>
		<path style="clip-path:url(#SVGID_00000074423927677049344420000013810394140064300945_);fill:#ece0d0;" d="M33.4,93.2h-1.4
			c-1,0-1.4,0.5-1.4,1.4v9.7h1.3v-5.1h1.7v5.1h1.3v-9.7C34.8,93.7,34.4,93.2,33.4,93.2 M33.6,98h-1.7v-3.5h1.7V98z"/>
		<path style="clip-path:url(#SVGID_00000074423927677049344420000013810394140064300945_);fill:#ece0d0;" d="M44.4,93.2h-5.7v11.1
			h1.3v-9.9h1.7v9.9h1.3v-9.9h1.7v9.9h1.3v-9.7C45.8,93.7,45.4,93.2,44.4,93.2"/>
		<path style="clip-path:url(#SVGID_00000074423927677049344420000013810394140064300945_);fill:#ece0d0;" d="M52.4,93.2h-1.4
			c-1,0-1.4,0.5-1.4,1.4v8.3c0,1,0.5,1.4,1.4,1.4h1.4c1,0,1.4-0.5,1.4-1.4v-8.3C53.9,93.7,53.4,93.2,52.4,93.2 M52.6,103.1h-1.7
			v-8.6h1.7V103.1z"/>
		<path style="clip-path:url(#SVGID_00000074423927677049344420000013810394140064300945_);fill:#ece0d0;" d="M60.5,93.2h-1.4
			c-1,0-1.4,0.5-1.4,1.4v2.7c0,0.6,0.1,1,0.2,1.2c0.1,0.2,0.3,0.4,0.6,0.5l1.9,0.7c0.1,0.1,0.2,0.1,0.3,0.2c0,0.1,0.1,0.2,0.1,0.5
			v2.7H59v-2.7h-1.3v2.5c0,1,0.5,1.4,1.4,1.4h1.4c1,0,1.4-0.5,1.4-1.4v-2.7c0-0.5,0-0.8-0.2-1c-0.1-0.2-0.3-0.4-0.7-0.5l-1.7-0.6
			C59.2,98,59.1,98,59,97.9c0-0.1-0.1-0.2-0.1-0.5v-2.9h1.7v2.7h1.3v-2.6C61.9,93.7,61.4,93.2,60.5,93.2"/>
		<path style="clip-path:url(#SVGID_00000074423927677049344420000013810394140064300945_);fill:#ece0d0;" d="M73,93.2h-2.8v11.1H73
			c1,0,1.4-0.5,1.4-1.4v-8.3C74.4,93.7,74,93.2,73,93.2 M73.2,103.1h-1.7v-8.6h1.7V103.1z"/>
		<polygon style="clip-path:url(#SVGID_00000074423927677049344420000013810394140064300945_);fill:#ece0d0;" points="79.5,94.4 
			81.4,94.4 81.4,93.2 78.3,93.2 78.3,104.3 81.4,104.3 81.4,103.1 79.5,103.1 79.5,99.2 81.4,99.2 81.4,98 79.5,98 		"/>
		<polygon style="clip-path:url(#SVGID_00000074423927677049344420000013810394140064300945_);fill:#ece0d0;" points="89.1,94.4 
			90.4,94.4 90.4,104.3 91.7,104.3 91.7,94.4 93,94.4 93,93.2 89.1,93.2 		"/>
		<path style="clip-path:url(#SVGID_00000074423927677049344420000013810394140064300945_);fill:#ece0d0;" d="M99.4,93.2H98
			c-1,0-1.4,0.5-1.4,1.4v9.7h1.3v-5.1h1.7v5.1h1.3v-9.7C100.8,93.7,100.3,93.2,99.4,93.2 M99.5,98h-1.7v-3.5h1.7V98z"/>
		<path style="clip-path:url(#SVGID_00000074423927677049344420000013810394140064300945_);fill:#ece0d0;" d="M107.4,93.2h-2.8v11.1
			h1.3v-5.1h1.5c1,0,1.4-0.5,1.4-1.4v-3.2C108.8,93.7,108.4,93.2,107.4,93.2 M107.6,98h-1.7v-3.5h1.7V98z"/>
		<path style="clip-path:url(#SVGID_00000074423927677049344420000013810394140064300945_);fill:#ece0d0;" d="M115.4,93.2H114
			c-1,0-1.4,0.5-1.4,1.4v9.7h1.3v-5.1h1.7v5.1h1.3v-9.7C116.8,93.7,116.3,93.2,115.4,93.2 M115.6,98h-1.7v-3.5h1.7V98z"/>
		<path style="clip-path:url(#SVGID_00000074423927677049344420000013810394140064300945_);fill:#ece0d0;" d="M123.4,93.2h-1.4
			c-1,0-1.4,0.5-1.4,1.4v2.7c0,0.6,0,1,0.1,1.2c0.1,0.2,0.3,0.4,0.6,0.5l1.9,0.7c0.1,0.1,0.2,0.1,0.3,0.2c0,0.1,0,0.2,0,0.5v2.7
			h-1.7v-2.7h-1.3v2.5c0,1,0.5,1.4,1.4,1.4h1.4c1,0,1.4-0.5,1.4-1.4v-2.7c0-0.5,0-0.8-0.2-1c-0.1-0.2-0.3-0.4-0.7-0.5l-1.7-0.6
			c-0.2-0.1-0.3-0.1-0.3-0.2c0-0.1-0.1-0.2-0.1-0.5v-2.9h1.7v2.7h1.3v-2.6C124.9,93.7,124.4,93.2,123.4,93.2"/>
		<polygon style="clip-path:url(#SVGID_00000074423927677049344420000013810394140064300945_);fill:#ece0d0;" points="129.8,101.6 
			130,92.2 128.7,92.2 128.9,101.6 		"/>
		<path style="clip-path:url(#SVGID_00000074423927677049344420000013810394140064300945_);fill:#ece0d0;" d="M129.3,103
			c-0.2,0-0.4,0.1-0.5,0.2c-0.1,0.1-0.2,0.3-0.2,0.5c0,0.2,0.1,0.4,0.2,0.5c0.1,0.2,0.3,0.2,0.5,0.2c0.2,0,0.4-0.1,0.5-0.2
			c0.1-0.1,0.2-0.3,0.2-0.5c0-0.2-0.1-0.4-0.2-0.5C129.7,103,129.5,103,129.3,103"/>
		<path style="clip-path:url(#SVGID_00000074423927677049344420000013810394140064300945_);fill:#ece0d0;" d="M140.9,5.7
			c-3.2,0-6.5,0-9.7,0c-3.7,0-6.2,2.6-6.2,6.3c0,8.8,0,17.8,0,26.6c0,8.8,0,18.1,0,27c0,3.7,2.6,6.3,6.2,6.3c3.2,0,6.5,0,9.7,0
			c3.2,0,6.2-2.4,6.2-6.2c0-17.7,0-36,0-53.7C147.2,8.3,144.4,5.7,140.9,5.7 M139.2,56.1c0,1.7-0.8,2.4-2.4,2.4c-0.5,0-1.1,0-1.6,0
			c-1.3,0-2.2-0.9-2.2-2.2c0-3.1,0-6.2,0-9.2c0-8.6,0-17.2,0-25.8c0-1.6,0.8-2.4,2.4-2.5c0.5,0,1.1,0,1.6,0c1.4,0.1,2.2,0.9,2.2,2.3
			c0,5.9,0,11.8,0,17.6C139.2,44.5,139.2,50.3,139.2,56.1"/>
		<path style="clip-path:url(#SVGID_00000074423927677049344420000013810394140064300945_);fill:#ece0d0;" d="M22.8,51.9v-0.8h-7.9
			c0,1.8,0,3.5,0,5.3c0,1.3-0.8,2.2-2.1,2.3c-0.5,0-1,0-1.5,0c-1.9,0-2.7-0.7-2.7-2.7V22.8c0-0.7,0-1.3,0-2c0-1.3,0.9-2.2,2.2-2.2
			c0.6,0,1.3,0,1.9,0c1.2,0,2.2,1,2.2,2.3c0,1.2,0,2.5,0,3.7v1.6h7.9v-0.8c0-4.6,0-9.2,0-13.8c0-1.3-0.3-2.5-1.1-3.6
			C20.9,7,20,6.5,19,6.2c-1-0.4-2.1-0.5-3.2-0.5H7.7c-1.1,0-2.1,0.2-3.1,0.5C4.1,6.4,3.6,6.6,3.2,6.9C1.8,7.7,1,9.1,0.7,10.7
			c0,0,0,0.1,0,0.2c-0.1,0.3-0.1,0.7-0.1,1v53.4c0,0.8,0.1,1.6,0.4,2.4c0,0,0,0,0,0c1,2.6,3.2,4,5.8,4.1c3,0.1,6,0,9,0
			c0.8,0,1.6-0.1,2.4-0.3c2.7-0.6,4.6-3.1,4.6-5.9C22.8,61.1,22.8,56.5,22.8,51.9"/>
		<path style="clip-path:url(#SVGID_00000074423927677049344420000013810394140064300945_);fill:#ece0d0;" d="M42.6,71.8h9.3
			c-0.7-5-1.4-10.6-2.1-15.5c-0.7-4.7-1.4-9.5-2.1-14.2c-0.6-4.1-1.2-8.2-1.7-12.3c-0.5-3.6-1-7.3-1.6-10.9
			c-0.6-4.4-1.3-8.8-1.9-13.2h-8.7c-3.1,21.8-6.3,44.3-9.4,66.1c2.9,0,5.8,0,8.7,0L35,62h6.1C41.6,65.1,42.1,68.8,42.6,71.8
			 M36,50.9c0.7-5.6,1.4-11.1,2.1-16.6c0.7,5.5,1.3,11.1,2,16.6H36z"/>
		
			<rect x="84.8" y="5.7" style="clip-path:url(#SVGID_00000074423927677049344420000013810394140064300945_);fill:#ece0d0;" width="9" height="66.1"/>
		<path style="clip-path:url(#SVGID_00000074423927677049344420000013810394140064300945_);fill:#ece0d0;" d="M72.6,51.3v20.5H81
			V6.4V5.9V5.7h-8.2l-0.1,0.6c0,0,0,0.1,0,0.1c-1.5,5.9-3.1,11.9-4.6,17.8c-0.2,0.7-0.4,1.3-0.6,2.2c-0.1-0.4-0.2-0.6-0.2-0.8
			c-1.3-5.5-2.7-11.1-4-16.6l-0.7-3.2h-8.2v66.1h8.5V51.4l3.8,11h2.1L72.6,51.3z"/>
		<polygon style="clip-path:url(#SVGID_00000074423927677049344420000013810394140064300945_);fill:#ece0d0;" points="121.5,5.7 
			112.3,5.7 112.3,26.6 105.4,5.7 97.5,5.7 97.5,71.8 105.8,71.8 105.9,51.7 112.6,71.8 112.6,71.9 117.6,71.9 121.5,71.9 		"/>
		<path style="clip-path:url(#SVGID_00000074423927677049344420000013810394140064300945_);fill:#ece0d0;" d="M74.9,81.3L74.9,81.3
			L76,81c0.4-0.5,0.3-0.9,0.5-1.5l-0.1-0.1c-0.5,0.3-1,0.2-1.4,0.7L74.9,81.3z"/>
		<path style="clip-path:url(#SVGID_00000074423927677049344420000013810394140064300945_);fill:#ece0d0;" d="M72.7,83.2L72.7,83.2
			l-1.1,0.3c-0.4,0.5-0.3,0.9-0.5,1.5l0.1,0.1c0.5-0.3,1-0.2,1.4-0.7L72.7,83.2z"/>
		<path style="clip-path:url(#SVGID_00000074423927677049344420000013810394140064300945_);fill:#ece0d0;" d="M74.9,83.2L74.9,83.2
			l0.1,1.2c0.4,0.5,0.9,0.4,1.4,0.7l0.1-0.1c-0.2-0.6-0.1-1-0.5-1.5L74.9,83.2z"/>
		<path style="clip-path:url(#SVGID_00000074423927677049344420000013810394140064300945_);fill:#ece0d0;" d="M73.9,82.8
			c0.2,0,0.4-0.2,0.5-0.4c2.4,0.2,4,1.1,4.1,1.6h0.1c0-0.8-0.5-1.3-0.8-1.5v0c0,0,0.6,0.3,0.8,0.3c0.3,0,0.5-0.3,0.9-0.5v-0.1
			c-0.4-0.1-0.7-0.4-0.9-0.4c-0.2,0-0.8,0.3-0.8,0.3v0c0.3-0.2,0.8-0.7,0.8-1.5h-0.1c0,0.5-1.6,1.5-4.1,1.6c0-0.2-0.2-0.4-0.5-0.5
			c0.1-2.5,1.1-4.1,1.6-4.1v-0.1c-0.8,0-1.3,0.5-1.5,0.8h0c0,0,0.3-0.6,0.3-0.8c0-0.3-0.3-0.5-0.5-0.9h-0.1
			c-0.1,0.4-0.5,0.7-0.5,0.9c0,0.2,0.3,0.8,0.3,0.8h0c-0.2-0.3-0.7-0.8-1.5-0.8v0.1c0.5,0,1.5,1.6,1.6,4.1c-0.2,0-0.4,0.2-0.4,0.5
			c-2.5-0.1-4.1-1.1-4.2-1.6H69c0,0.8,0.5,1.3,0.8,1.5v0c0,0-0.6-0.3-0.8-0.3c-0.3,0-0.5,0.3-0.9,0.4v0.1c0.4,0.2,0.7,0.5,0.9,0.5
			c0.2,0,0.8-0.3,0.8-0.3v0C69.6,82.7,69,83.2,69,84h0.1c0-0.5,1.7-1.5,4.2-1.6c0,0.2,0.2,0.4,0.4,0.5c-0.1,2.5-1.1,4.1-1.6,4.1v0.1
			c0.8,0,1.3-0.5,1.5-0.8h0c0,0-0.3,0.6-0.3,0.8c0,0.3,0.3,0.5,0.5,0.9h0.1c0.2-0.4,0.5-0.7,0.5-0.9c0-0.2-0.3-0.8-0.3-0.8h0
			c0.2,0.3,0.7,0.8,1.5,0.8v-0.1C75.1,86.9,74.1,85.3,73.9,82.8"/>
		<path style="clip-path:url(#SVGID_00000074423927677049344420000013810394140064300945_);fill:#ece0d0;" d="M72.7,81.4L72.7,81.4
			l-0.1-1.2c-0.4-0.5-0.9-0.4-1.4-0.7l-0.1,0.1c0.2,0.6,0.1,1,0.5,1.5L72.7,81.4z"/>
		<path style="clip-path:url(#SVGID_00000074423927677049344420000013810394140064300945_);fill:#ece0d0;" d="M64.7,81.9H50.2
			c-0.2,0-0.4,0.2-0.4,0.4s0.2,0.4,0.4,0.4h14.4c0.2,0,0.4-0.2,0.4-0.4S64.9,81.9,64.7,81.9"/>
		<path style="clip-path:url(#SVGID_00000074423927677049344420000013810394140064300945_);fill:#ece0d0;" d="M97.9,82.3
			c0-0.2-0.2-0.4-0.4-0.4H83.1c-0.2,0-0.4,0.2-0.4,0.4c0,0.2,0.2,0.4,0.4,0.4h14.4C97.7,82.7,97.9,82.5,97.9,82.3"/>
	</g>
	<polygon class="st1" points="17.9,95.9 17.7,105.2 19,105.2 18.9,95.9 	"/>
</g>
</svg>
